{"glyphs":{"0":{"ha":915,"x_min":0,"x_max":0,"o":"m 457 -18 b 43 486 196 -18 43 189 b 458 989 43 783 199 989 b 871 486 718 989 871 783 b 457 -18 871 189 717 -18 m 458 164 b 678 486 597 164 678 296 b 458 807 678 676 597 807 b 239 486 318 807 239 676 b 458 164 239 296 318 164 "},"1":{"ha":504,"x_min":0,"x_max":0,"o":"m 221 806 l 36 806 l 36 972 l 419 972 l 419 0 l 221 0 "},"2":{"ha":906,"x_min":0,"x_max":0,"o":"m 64 47 l 408 415 b 558 669 518 531 558 603 b 376 821 558 754 489 821 b 119 719 236 821 160 751 l 76 875 b 442 989 147 925 253 989 b 786 703 672 989 786 854 b 611 364 786 606 731 500 l 438 175 l 442 164 l 818 164 l 818 0 l 64 0 "},"3":{"ha":892,"x_min":0,"x_max":0,"o":"m 406 -19 b 29 85 246 -19 114 32 l 94 236 b 375 156 175 189 271 156 b 633 331 489 156 633 207 b 386 486 633 440 543 486 l 188 486 l 188 531 l 460 811 l 454 824 l 101 824 l 101 972 l 774 972 l 774 938 l 465 617 l 465 606 l 511 606 b 832 324 713 606 832 497 b 406 -19 832 121 604 -18 "},"4":{"ha":831,"x_min":0,"x_max":0,"o":"m 140 274 b 128 272 136 274 132 274 l 128 136 b 140 135 131 135 136 135 b 183 204 176 135 183 161 b 140 274 183 249 176 274 l 140 274 m 351 190 l 296 190 l 296 138 l 361 138 l 361 104 l 256 104 l 256 306 l 361 306 l 361 271 l 296 271 l 296 224 l 351 224 m 138 101 b 88 104 126 101 106 101 l 88 303 b 139 308 106 306 125 308 b 224 204 201 308 224 274 b 138 101 224 133 200 101 l 138 101 m 451 306 l 478 194 l 504 306 l 560 306 b 568 104 563 257 565 169 l 528 104 b 524 249 528 151 526 201 l 496 135 l 458 135 l 431 249 l 429 249 b 426 104 428 201 426 151 l 388 104 b 397 306 389 169 393 257 l 397 306 m 669 101 b 596 204 614 101 596 133 b 669 308 596 275 614 308 b 744 204 725 308 744 275 b 669 101 744 133 725 101 l 669 101 m 669 274 b 636 204 642 274 636 250 b 669 135 636 160 642 135 b 704 204 699 135 704 160 b 669 274 704 250 699 274 m 656 689 b 742 601 728 689 742 631 b 669 529 742 558 699 533 b 439 429 569 518 497 486 b 656 689 439 429 540 689 l 656 689 m 193 617 b 410 357 324 617 410 357 b 193 457 353 429 281 457 b 107 529 150 457 107 486 b 193 617 107 574 136 617 l 193 617 m 436 824 b 410 486 529 733 410 486 b 325 710 419 578 388 650 b 313 822 294 740 283 790 b 436 824 343 853 394 864 l 436 824 "},"5":{"ha":904,"x_min":0,"x_max":0,"o":"m 431 -18 b 60 71 299 -18 129 26 l 90 225 b 381 154 153 192 260 154 b 640 332 563 154 640 239 b 392 499 640 429 540 499 b 103 435 288 499 193 475 l 103 972 l 758 972 l 758 819 l 290 819 l 290 599 b 479 635 344 619 399 633 b 839 336 706 638 839 531 b 431 -18 839 140 701 -18 "},"6":{"ha":917,"x_min":0,"x_max":0,"o":"m 457 -18 b 53 333 221 -18 53 131 b 146 572 53 413 99 506 l 422 972 l 639 972 l 411 643 b 521 663 447 656 479 663 b 865 332 718 663 865 524 b 457 -18 864 135 701 -18 m 457 146 b 669 342 576 146 669 229 b 457 538 669 454 576 538 b 246 343 338 538 246 456 b 457 146 246 229 338 146 "},"7":{"ha":886,"x_min":0,"x_max":0,"o":"m 163 0 l 531 792 l 525 803 l 88 803 l 88 972 l 825 972 l 825 942 l 394 -1 "},"8":{"ha":928,"x_min":0,"x_max":0,"o":"m 463 -18 b 58 258 222 -18 58 94 b 283 500 58 376 143 475 l 283 511 b 96 733 171 536 96 629 b 463 989 96 881 232 989 b 829 733 696 989 829 881 b 643 511 829 629 754 536 l 643 500 b 869 258 783 475 869 376 b 463 -18 869 94 704 -18 m 463 558 b 643 697 568 558 643 617 b 463 838 643 779 568 838 b 285 697 358 838 285 779 b 463 558 285 617 357 558 m 463 143 b 667 299 582 143 667 207 b 463 453 667 388 583 453 b 258 299 344 453 258 388 b 463 143 258 207 344 143 "},"9":{"ha":917,"x_min":0,"x_max":0,"o":"m 506 318 b 396 300 469 306 438 300 b 53 629 199 300 53 438 b 460 978 54 826 217 978 b 865 628 696 978 865 829 b 775 394 865 547 822 461 l 494 -11 l 278 -11 m 460 417 b 672 615 579 417 672 503 b 460 815 672 729 579 815 b 247 617 340 815 247 729 b 460 417 247 503 340 417 "}," ":{"ha":343,"x_min":0,"x_max":0,"o":""},"!":{"ha":831,"x_min":0,"x_max":0,"o":"m 140 274 b 128 272 136 274 132 274 l 128 136 b 140 135 131 135 136 135 b 183 204 176 135 183 161 b 140 274 183 249 176 274 l 140 274 m 351 190 l 296 190 l 296 138 l 361 138 l 361 104 l 256 104 l 256 306 l 361 306 l 361 271 l 296 271 l 296 224 l 351 224 m 138 101 b 88 104 126 101 106 101 l 88 303 b 139 308 106 306 125 308 b 224 204 201 308 224 274 b 138 101 224 133 200 101 l 138 101 m 451 306 l 478 194 l 504 306 l 560 306 b 568 104 563 257 565 169 l 528 104 b 524 249 528 151 526 201 l 496 135 l 458 135 l 431 249 l 429 249 b 426 104 428 201 426 151 l 388 104 b 397 306 389 169 393 257 l 397 306 m 669 101 b 596 204 614 101 596 133 b 669 308 596 275 614 308 b 744 204 725 308 744 275 b 669 101 744 133 725 101 l 669 101 m 669 274 b 636 204 642 274 636 250 b 669 135 636 160 642 135 b 704 204 699 135 704 160 b 669 274 704 250 699 274 m 656 689 b 742 601 728 689 742 631 b 669 529 742 558 699 533 b 439 429 569 518 497 486 b 656 689 439 429 540 689 l 656 689 m 193 617 b 410 357 324 617 410 357 b 193 457 353 429 281 457 b 107 529 150 457 107 486 b 193 617 107 574 136 617 l 193 617 m 436 824 b 410 486 529 733 410 486 b 325 710 419 578 388 650 b 313 822 294 740 283 790 b 436 824 343 853 394 864 l 436 824 "},"\"":{"ha":831,"x_min":0,"x_max":0,"o":"m 140 274 b 128 272 136 274 132 274 l 128 136 b 140 135 131 135 136 135 b 183 204 176 135 183 161 b 140 274 183 249 176 274 l 140 274 m 351 190 l 296 190 l 296 138 l 361 138 l 361 104 l 256 104 l 256 306 l 361 306 l 361 271 l 296 271 l 296 224 l 351 224 m 138 101 b 88 104 126 101 106 101 l 88 303 b 139 308 106 306 125 308 b 224 204 201 308 224 274 b 138 101 224 133 200 101 l 138 101 m 451 306 l 478 194 l 504 306 l 560 306 b 568 104 563 257 565 169 l 528 104 b 524 249 528 151 526 201 l 496 135 l 458 135 l 431 249 l 429 249 b 426 104 428 201 426 151 l 388 104 b 397 306 389 169 393 257 l 397 306 m 669 101 b 596 204 614 101 596 133 b 669 308 596 275 614 308 b 744 204 725 308 744 275 b 669 101 744 133 725 101 l 669 101 m 669 274 b 636 204 642 274 636 250 b 669 135 636 160 642 135 b 704 204 699 135 704 160 b 669 274 704 250 699 274 m 656 689 b 742 601 728 689 742 631 b 669 529 742 558 699 533 b 439 429 569 518 497 486 b 656 689 439 429 540 689 l 656 689 m 193 617 b 410 357 324 617 410 357 b 193 457 353 429 281 457 b 107 529 150 457 107 486 b 193 617 107 574 136 617 l 193 617 m 436 824 b 410 486 529 733 410 486 b 325 710 419 578 388 650 b 313 822 294 740 283 790 b 436 824 343 853 394 864 l 436 824 "},"#":{"ha":831,"x_min":0,"x_max":0,"o":"m 140 274 b 128 272 136 274 132 274 l 128 136 b 140 135 131 135 136 135 b 183 204 176 135 183 161 b 140 274 183 249 176 274 l 140 274 m 351 190 l 296 190 l 296 138 l 361 138 l 361 104 l 256 104 l 256 306 l 361 306 l 361 271 l 296 271 l 296 224 l 351 224 m 138 101 b 88 104 126 101 106 101 l 88 303 b 139 308 106 306 125 308 b 224 204 201 308 224 274 b 138 101 224 133 200 101 l 138 101 m 451 306 l 478 194 l 504 306 l 560 306 b 568 104 563 257 565 169 l 528 104 b 524 249 528 151 526 201 l 496 135 l 458 135 l 431 249 l 429 249 b 426 104 428 201 426 151 l 388 104 b 397 306 389 169 393 257 l 397 306 m 669 101 b 596 204 614 101 596 133 b 669 308 596 275 614 308 b 744 204 725 308 744 275 b 669 101 744 133 725 101 l 669 101 m 669 274 b 636 204 642 274 636 250 b 669 135 636 160 642 135 b 704 204 699 135 704 160 b 669 274 704 250 699 274 m 656 689 b 742 601 728 689 742 631 b 669 529 742 558 699 533 b 439 429 569 518 497 486 b 656 689 439 429 540 689 l 656 689 m 193 617 b 410 357 324 617 410 357 b 193 457 353 429 281 457 b 107 529 150 457 107 486 b 193 617 107 574 136 617 l 193 617 m 436 824 b 410 486 529 733 410 486 b 325 710 419 578 388 650 b 313 822 294 740 283 790 b 436 824 343 853 394 864 l 436 824 "},"$":{"ha":831,"x_min":0,"x_max":0,"o":"m 140 274 b 128 272 136 274 132 274 l 128 136 b 140 135 131 135 136 135 b 183 204 176 135 183 161 b 140 274 183 249 176 274 l 140 274 m 351 190 l 296 190 l 296 138 l 361 138 l 361 104 l 256 104 l 256 306 l 361 306 l 361 271 l 296 271 l 296 224 l 351 224 m 138 101 b 88 104 126 101 106 101 l 88 303 b 139 308 106 306 125 308 b 224 204 201 308 224 274 b 138 101 224 133 200 101 l 138 101 m 451 306 l 478 194 l 504 306 l 560 306 b 568 104 563 257 565 169 l 528 104 b 524 249 528 151 526 201 l 496 135 l 458 135 l 431 249 l 429 249 b 426 104 428 201 426 151 l 388 104 b 397 306 389 169 393 257 l 397 306 m 669 101 b 596 204 614 101 596 133 b 669 308 596 275 614 308 b 744 204 725 308 744 275 b 669 101 744 133 725 101 l 669 101 m 669 274 b 636 204 642 274 636 250 b 669 135 636 160 642 135 b 704 204 699 135 704 160 b 669 274 704 250 699 274 m 656 689 b 742 601 728 689 742 631 b 669 529 742 558 699 533 b 439 429 569 518 497 486 b 656 689 439 429 540 689 l 656 689 m 193 617 b 410 357 324 617 410 357 b 193 457 353 429 281 457 b 107 529 150 457 107 486 b 193 617 107 574 136 617 l 193 617 m 436 824 b 410 486 529 733 410 486 b 325 710 419 578 388 650 b 313 822 294 740 283 790 b 436 824 343 853 394 864 l 436 824 "},"%":{"ha":831,"x_min":0,"x_max":0,"o":"m 140 274 b 128 272 136 274 132 274 l 128 136 b 140 135 131 135 136 135 b 183 204 176 135 183 161 b 140 274 183 249 176 274 l 140 274 m 351 190 l 296 190 l 296 138 l 361 138 l 361 104 l 256 104 l 256 306 l 361 306 l 361 271 l 296 271 l 296 224 l 351 224 m 138 101 b 88 104 126 101 106 101 l 88 303 b 139 308 106 306 125 308 b 224 204 201 308 224 274 b 138 101 224 133 200 101 l 138 101 m 451 306 l 478 194 l 504 306 l 560 306 b 568 104 563 257 565 169 l 528 104 b 524 249 528 151 526 201 l 496 135 l 458 135 l 431 249 l 429 249 b 426 104 428 201 426 151 l 388 104 b 397 306 389 169 393 257 l 397 306 m 669 101 b 596 204 614 101 596 133 b 669 308 596 275 614 308 b 744 204 725 308 744 275 b 669 101 744 133 725 101 l 669 101 m 669 274 b 636 204 642 274 636 250 b 669 135 636 160 642 135 b 704 204 699 135 704 160 b 669 274 704 250 699 274 m 656 689 b 742 601 728 689 742 631 b 669 529 742 558 699 533 b 439 429 569 518 497 486 b 656 689 439 429 540 689 l 656 689 m 193 617 b 410 357 324 617 410 357 b 193 457 353 429 281 457 b 107 529 150 457 107 486 b 193 617 107 574 136 617 l 193 617 m 436 824 b 410 486 529 733 410 486 b 325 710 419 578 388 650 b 313 822 294 740 283 790 b 436 824 343 853 394 864 l 436 824 "},"&":{"ha":831,"x_min":0,"x_max":0,"o":"m 140 274 b 128 272 136 274 132 274 l 128 136 b 140 135 131 135 136 135 b 183 204 176 135 183 161 b 140 274 183 249 176 274 l 140 274 m 351 190 l 296 190 l 296 138 l 361 138 l 361 104 l 256 104 l 256 306 l 361 306 l 361 271 l 296 271 l 296 224 l 351 224 m 138 101 b 88 104 126 101 106 101 l 88 303 b 139 308 106 306 125 308 b 224 204 201 308 224 274 b 138 101 224 133 200 101 l 138 101 m 451 306 l 478 194 l 504 306 l 560 306 b 568 104 563 257 565 169 l 528 104 b 524 249 528 151 526 201 l 496 135 l 458 135 l 431 249 l 429 249 b 426 104 428 201 426 151 l 388 104 b 397 306 389 169 393 257 l 397 306 m 669 101 b 596 204 614 101 596 133 b 669 308 596 275 614 308 b 744 204 725 308 744 275 b 669 101 744 133 725 101 l 669 101 m 669 274 b 636 204 642 274 636 250 b 669 135 636 160 642 135 b 704 204 699 135 704 160 b 669 274 704 250 699 274 m 656 689 b 742 601 728 689 742 631 b 669 529 742 558 699 533 b 439 429 569 518 497 486 b 656 689 439 429 540 689 l 656 689 m 193 617 b 410 357 324 617 410 357 b 193 457 353 429 281 457 b 107 529 150 457 107 486 b 193 617 107 574 136 617 l 193 617 m 436 824 b 410 486 529 733 410 486 b 325 710 419 578 388 650 b 313 822 294 740 283 790 b 436 824 343 853 394 864 l 436 824 "},"'":{"ha":831,"x_min":0,"x_max":0,"o":"m 140 274 b 128 272 136 274 132 274 l 128 136 b 140 135 131 135 136 135 b 183 204 176 135 183 161 b 140 274 183 249 176 274 l 140 274 m 351 190 l 296 190 l 296 138 l 361 138 l 361 104 l 256 104 l 256 306 l 361 306 l 361 271 l 296 271 l 296 224 l 351 224 m 138 101 b 88 104 126 101 106 101 l 88 303 b 139 308 106 306 125 308 b 224 204 201 308 224 274 b 138 101 224 133 200 101 l 138 101 m 451 306 l 478 194 l 504 306 l 560 306 b 568 104 563 257 565 169 l 528 104 b 524 249 528 151 526 201 l 496 135 l 458 135 l 431 249 l 429 249 b 426 104 428 201 426 151 l 388 104 b 397 306 389 169 393 257 l 397 306 m 669 101 b 596 204 614 101 596 133 b 669 308 596 275 614 308 b 744 204 725 308 744 275 b 669 101 744 133 725 101 l 669 101 m 669 274 b 636 204 642 274 636 250 b 669 135 636 160 642 135 b 704 204 699 135 704 160 b 669 274 704 250 699 274 m 656 689 b 742 601 728 689 742 631 b 669 529 742 558 699 533 b 439 429 569 518 497 486 b 656 689 439 429 540 689 l 656 689 m 193 617 b 410 357 324 617 410 357 b 193 457 353 429 281 457 b 107 529 150 457 107 486 b 193 617 107 574 136 617 l 193 617 m 436 824 b 410 486 529 733 410 486 b 325 710 419 578 388 650 b 313 822 294 740 283 790 b 436 824 343 853 394 864 l 436 824 "},"(":{"ha":831,"x_min":0,"x_max":0,"o":"m 140 274 b 128 272 136 274 132 274 l 128 136 b 140 135 131 135 136 135 b 183 204 176 135 183 161 b 140 274 183 249 176 274 l 140 274 m 351 190 l 296 190 l 296 138 l 361 138 l 361 104 l 256 104 l 256 306 l 361 306 l 361 271 l 296 271 l 296 224 l 351 224 m 138 101 b 88 104 126 101 106 101 l 88 303 b 139 308 106 306 125 308 b 224 204 201 308 224 274 b 138 101 224 133 200 101 l 138 101 m 451 306 l 478 194 l 504 306 l 560 306 b 568 104 563 257 565 169 l 528 104 b 524 249 528 151 526 201 l 496 135 l 458 135 l 431 249 l 429 249 b 426 104 428 201 426 151 l 388 104 b 397 306 389 169 393 257 l 397 306 m 669 101 b 596 204 614 101 596 133 b 669 308 596 275 614 308 b 744 204 725 308 744 275 b 669 101 744 133 725 101 l 669 101 m 669 274 b 636 204 642 274 636 250 b 669 135 636 160 642 135 b 704 204 699 135 704 160 b 669 274 704 250 699 274 m 656 689 b 742 601 728 689 742 631 b 669 529 742 558 699 533 b 439 429 569 518 497 486 b 656 689 439 429 540 689 l 656 689 m 193 617 b 410 357 324 617 410 357 b 193 457 353 429 281 457 b 107 529 150 457 107 486 b 193 617 107 574 136 617 l 193 617 m 436 824 b 410 486 529 733 410 486 b 325 710 419 578 388 650 b 313 822 294 740 283 790 b 436 824 343 853 394 864 l 436 824 "},")":{"ha":831,"x_min":0,"x_max":0,"o":"m 140 274 b 128 272 136 274 132 274 l 128 136 b 140 135 131 135 136 135 b 183 204 176 135 183 161 b 140 274 183 249 176 274 l 140 274 m 351 190 l 296 190 l 296 138 l 361 138 l 361 104 l 256 104 l 256 306 l 361 306 l 361 271 l 296 271 l 296 224 l 351 224 m 138 101 b 88 104 126 101 106 101 l 88 303 b 139 308 106 306 125 308 b 224 204 201 308 224 274 b 138 101 224 133 200 101 l 138 101 m 451 306 l 478 194 l 504 306 l 560 306 b 568 104 563 257 565 169 l 528 104 b 524 249 528 151 526 201 l 496 135 l 458 135 l 431 249 l 429 249 b 426 104 428 201 426 151 l 388 104 b 397 306 389 169 393 257 l 397 306 m 669 101 b 596 204 614 101 596 133 b 669 308 596 275 614 308 b 744 204 725 308 744 275 b 669 101 744 133 725 101 l 669 101 m 669 274 b 636 204 642 274 636 250 b 669 135 636 160 642 135 b 704 204 699 135 704 160 b 669 274 704 250 699 274 m 656 689 b 742 601 728 689 742 631 b 669 529 742 558 699 533 b 439 429 569 518 497 486 b 656 689 439 429 540 689 l 656 689 m 193 617 b 410 357 324 617 410 357 b 193 457 353 429 281 457 b 107 529 150 457 107 486 b 193 617 107 574 136 617 l 193 617 m 436 824 b 410 486 529 733 410 486 b 325 710 419 578 388 650 b 313 822 294 740 283 790 b 436 824 343 853 394 864 l 436 824 "},"*":{"ha":831,"x_min":0,"x_max":0,"o":"m 140 274 b 128 272 136 274 132 274 l 128 136 b 140 135 131 135 136 135 b 183 204 176 135 183 161 b 140 274 183 249 176 274 l 140 274 m 351 190 l 296 190 l 296 138 l 361 138 l 361 104 l 256 104 l 256 306 l 361 306 l 361 271 l 296 271 l 296 224 l 351 224 m 138 101 b 88 104 126 101 106 101 l 88 303 b 139 308 106 306 125 308 b 224 204 201 308 224 274 b 138 101 224 133 200 101 l 138 101 m 451 306 l 478 194 l 504 306 l 560 306 b 568 104 563 257 565 169 l 528 104 b 524 249 528 151 526 201 l 496 135 l 458 135 l 431 249 l 429 249 b 426 104 428 201 426 151 l 388 104 b 397 306 389 169 393 257 l 397 306 m 669 101 b 596 204 614 101 596 133 b 669 308 596 275 614 308 b 744 204 725 308 744 275 b 669 101 744 133 725 101 l 669 101 m 669 274 b 636 204 642 274 636 250 b 669 135 636 160 642 135 b 704 204 699 135 704 160 b 669 274 704 250 699 274 m 656 689 b 742 601 728 689 742 631 b 669 529 742 558 699 533 b 439 429 569 518 497 486 b 656 689 439 429 540 689 l 656 689 m 193 617 b 410 357 324 617 410 357 b 193 457 353 429 281 457 b 107 529 150 457 107 486 b 193 617 107 574 136 617 l 193 617 m 436 824 b 410 486 529 733 410 486 b 325 710 419 578 388 650 b 313 822 294 740 283 790 b 436 824 343 853 394 864 l 436 824 "},"+":{"ha":831,"x_min":0,"x_max":0,"o":"m 140 274 b 128 272 136 274 132 274 l 128 136 b 140 135 131 135 136 135 b 183 204 176 135 183 161 b 140 274 183 249 176 274 l 140 274 m 351 190 l 296 190 l 296 138 l 361 138 l 361 104 l 256 104 l 256 306 l 361 306 l 361 271 l 296 271 l 296 224 l 351 224 m 138 101 b 88 104 126 101 106 101 l 88 303 b 139 308 106 306 125 308 b 224 204 201 308 224 274 b 138 101 224 133 200 101 l 138 101 m 451 306 l 478 194 l 504 306 l 560 306 b 568 104 563 257 565 169 l 528 104 b 524 249 528 151 526 201 l 496 135 l 458 135 l 431 249 l 429 249 b 426 104 428 201 426 151 l 388 104 b 397 306 389 169 393 257 l 397 306 m 669 101 b 596 204 614 101 596 133 b 669 308 596 275 614 308 b 744 204 725 308 744 275 b 669 101 744 133 725 101 l 669 101 m 669 274 b 636 204 642 274 636 250 b 669 135 636 160 642 135 b 704 204 699 135 704 160 b 669 274 704 250 699 274 m 656 689 b 742 601 728 689 742 631 b 669 529 742 558 699 533 b 439 429 569 518 497 486 b 656 689 439 429 540 689 l 656 689 m 193 617 b 410 357 324 617 410 357 b 193 457 353 429 281 457 b 107 529 150 457 107 486 b 193 617 107 574 136 617 l 193 617 m 436 824 b 410 486 529 733 410 486 b 325 710 419 578 388 650 b 313 822 294 740 283 790 b 436 824 343 853 394 864 l 436 824 "},",":{"ha":308,"x_min":0,"x_max":0,"o":"m 67 -164 l 124 -4 b 65 78 89 10 65 38 b 154 164 65 126 107 164 b 243 76 201 164 243 126 b 221 7 243 51 232 26 l 126 -176 "},"-":{"ha":831,"x_min":0,"x_max":0,"o":"m 140 274 b 128 272 136 274 132 274 l 128 136 b 140 135 131 135 136 135 b 183 204 176 135 183 161 b 140 274 183 249 176 274 l 140 274 m 351 190 l 296 190 l 296 138 l 361 138 l 361 104 l 256 104 l 256 306 l 361 306 l 361 271 l 296 271 l 296 224 l 351 224 m 138 101 b 88 104 126 101 106 101 l 88 303 b 139 308 106 306 125 308 b 224 204 201 308 224 274 b 138 101 224 133 200 101 l 138 101 m 451 306 l 478 194 l 504 306 l 560 306 b 568 104 563 257 565 169 l 528 104 b 524 249 528 151 526 201 l 496 135 l 458 135 l 431 249 l 429 249 b 426 104 428 201 426 151 l 388 104 b 397 306 389 169 393 257 l 397 306 m 669 101 b 596 204 614 101 596 133 b 669 308 596 275 614 308 b 744 204 725 308 744 275 b 669 101 744 133 725 101 l 669 101 m 669 274 b 636 204 642 274 636 250 b 669 135 636 160 642 135 b 704 204 699 135 704 160 b 669 274 704 250 699 274 m 656 689 b 742 601 728 689 742 631 b 669 529 742 558 699 533 b 439 429 569 518 497 486 b 656 689 439 429 540 689 l 656 689 m 193 617 b 410 357 324 617 410 357 b 193 457 353 429 281 457 b 107 529 150 457 107 486 b 193 617 107 574 136 617 l 193 617 m 436 824 b 410 486 529 733 410 486 b 325 710 419 578 388 650 b 313 822 294 740 283 790 b 436 824 343 853 394 864 l 436 824 "},".":{"ha":308,"x_min":0,"x_max":0,"o":"m 154 -12 b 65 76 107 -12 65 25 b 154 164 65 126 107 164 b 243 76 201 164 243 126 b 154 -12 243 25 201 -12 "},"/":{"ha":831,"x_min":0,"x_max":0,"o":"m 140 274 b 128 272 136 274 132 274 l 128 136 b 140 135 131 135 136 135 b 183 204 176 135 183 161 b 140 274 183 249 176 274 l 140 274 m 351 190 l 296 190 l 296 138 l 361 138 l 361 104 l 256 104 l 256 306 l 361 306 l 361 271 l 296 271 l 296 224 l 351 224 m 138 101 b 88 104 126 101 106 101 l 88 303 b 139 308 106 306 125 308 b 224 204 201 308 224 274 b 138 101 224 133 200 101 l 138 101 m 451 306 l 478 194 l 504 306 l 560 306 b 568 104 563 257 565 169 l 528 104 b 524 249 528 151 526 201 l 496 135 l 458 135 l 431 249 l 429 249 b 426 104 428 201 426 151 l 388 104 b 397 306 389 169 393 257 l 397 306 m 669 101 b 596 204 614 101 596 133 b 669 308 596 275 614 308 b 744 204 725 308 744 275 b 669 101 744 133 725 101 l 669 101 m 669 274 b 636 204 642 274 636 250 b 669 135 636 160 642 135 b 704 204 699 135 704 160 b 669 274 704 250 699 274 m 656 689 b 742 601 728 689 742 631 b 669 529 742 558 699 533 b 439 429 569 518 497 486 b 656 689 439 429 540 689 l 656 689 m 193 617 b 410 357 324 617 410 357 b 193 457 353 429 281 457 b 107 529 150 457 107 486 b 193 617 107 574 136 617 l 193 617 m 436 824 b 410 486 529 733 410 486 b 325 710 419 578 388 650 b 313 822 294 740 283 790 b 436 824 343 853 394 864 l 436 824 "},":":{"ha":294,"x_min":0,"x_max":0,"o":"m 161 335 b 71 424 114 335 71 374 b 161 514 71 476 114 514 b 249 424 207 514 249 476 b 161 335 249 374 207 335 m 161 -12 b 71 76 114 -12 71 25 b 161 165 71 126 114 165 b 249 76 207 165 249 126 b 161 -12 249 25 207 -12 "},";":{"ha":294,"x_min":0,"x_max":0,"o":"m 161 335 b 71 424 114 335 71 374 b 161 514 71 476 114 514 b 249 424 207 514 249 476 b 161 335 249 374 207 335 m 72 -164 l 129 -4 b 71 78 96 10 71 38 b 161 164 71 126 114 164 b 249 76 207 164 249 126 b 226 7 249 51 238 26 l 133 -176 "},"<":{"ha":831,"x_min":0,"x_max":0,"o":"m 140 274 b 128 272 136 274 132 274 l 128 136 b 140 135 131 135 136 135 b 183 204 176 135 183 161 b 140 274 183 249 176 274 l 140 274 m 351 190 l 296 190 l 296 138 l 361 138 l 361 104 l 256 104 l 256 306 l 361 306 l 361 271 l 296 271 l 296 224 l 351 224 m 138 101 b 88 104 126 101 106 101 l 88 303 b 139 308 106 306 125 308 b 224 204 201 308 224 274 b 138 101 224 133 200 101 l 138 101 m 451 306 l 478 194 l 504 306 l 560 306 b 568 104 563 257 565 169 l 528 104 b 524 249 528 151 526 201 l 496 135 l 458 135 l 431 249 l 429 249 b 426 104 428 201 426 151 l 388 104 b 397 306 389 169 393 257 l 397 306 m 669 101 b 596 204 614 101 596 133 b 669 308 596 275 614 308 b 744 204 725 308 744 275 b 669 101 744 133 725 101 l 669 101 m 669 274 b 636 204 642 274 636 250 b 669 135 636 160 642 135 b 704 204 699 135 704 160 b 669 274 704 250 699 274 m 656 689 b 742 601 728 689 742 631 b 669 529 742 558 699 533 b 439 429 569 518 497 486 b 656 689 439 429 540 689 l 656 689 m 193 617 b 410 357 324 617 410 357 b 193 457 353 429 281 457 b 107 529 150 457 107 486 b 193 617 107 574 136 617 l 193 617 m 436 824 b 410 486 529 733 410 486 b 325 710 419 578 388 650 b 313 822 294 740 283 790 b 436 824 343 853 394 864 l 436 824 "},"=":{"ha":831,"x_min":0,"x_max":0,"o":"m 140 274 b 128 272 136 274 132 274 l 128 136 b 140 135 131 135 136 135 b 183 204 176 135 183 161 b 140 274 183 249 176 274 l 140 274 m 351 190 l 296 190 l 296 138 l 361 138 l 361 104 l 256 104 l 256 306 l 361 306 l 361 271 l 296 271 l 296 224 l 351 224 m 138 101 b 88 104 126 101 106 101 l 88 303 b 139 308 106 306 125 308 b 224 204 201 308 224 274 b 138 101 224 133 200 101 l 138 101 m 451 306 l 478 194 l 504 306 l 560 306 b 568 104 563 257 565 169 l 528 104 b 524 249 528 151 526 201 l 496 135 l 458 135 l 431 249 l 429 249 b 426 104 428 201 426 151 l 388 104 b 397 306 389 169 393 257 l 397 306 m 669 101 b 596 204 614 101 596 133 b 669 308 596 275 614 308 b 744 204 725 308 744 275 b 669 101 744 133 725 101 l 669 101 m 669 274 b 636 204 642 274 636 250 b 669 135 636 160 642 135 b 704 204 699 135 704 160 b 669 274 704 250 699 274 m 656 689 b 742 601 728 689 742 631 b 669 529 742 558 699 533 b 439 429 569 518 497 486 b 656 689 439 429 540 689 l 656 689 m 193 617 b 410 357 324 617 410 357 b 193 457 353 429 281 457 b 107 529 150 457 107 486 b 193 617 107 574 136 617 l 193 617 m 436 824 b 410 486 529 733 410 486 b 325 710 419 578 388 650 b 313 822 294 740 283 790 b 436 824 343 853 394 864 l 436 824 "},">":{"ha":831,"x_min":0,"x_max":0,"o":"m 140 274 b 128 272 136 274 132 274 l 128 136 b 140 135 131 135 136 135 b 183 204 176 135 183 161 b 140 274 183 249 176 274 l 140 274 m 351 190 l 296 190 l 296 138 l 361 138 l 361 104 l 256 104 l 256 306 l 361 306 l 361 271 l 296 271 l 296 224 l 351 224 m 138 101 b 88 104 126 101 106 101 l 88 303 b 139 308 106 306 125 308 b 224 204 201 308 224 274 b 138 101 224 133 200 101 l 138 101 m 451 306 l 478 194 l 504 306 l 560 306 b 568 104 563 257 565 169 l 528 104 b 524 249 528 151 526 201 l 496 135 l 458 135 l 431 249 l 429 249 b 426 104 428 201 426 151 l 388 104 b 397 306 389 169 393 257 l 397 306 m 669 101 b 596 204 614 101 596 133 b 669 308 596 275 614 308 b 744 204 725 308 744 275 b 669 101 744 133 725 101 l 669 101 m 669 274 b 636 204 642 274 636 250 b 669 135 636 160 642 135 b 704 204 699 135 704 160 b 669 274 704 250 699 274 m 656 689 b 742 601 728 689 742 631 b 669 529 742 558 699 533 b 439 429 569 518 497 486 b 656 689 439 429 540 689 l 656 689 m 193 617 b 410 357 324 617 410 357 b 193 457 353 429 281 457 b 107 529 150 457 107 486 b 193 617 107 574 136 617 l 193 617 m 436 824 b 410 486 529 733 410 486 b 325 710 419 578 388 650 b 313 822 294 740 283 790 b 436 824 343 853 394 864 l 436 824 "},"?":{"ha":672,"x_min":0,"x_max":0,"o":"m 225 538 l 289 538 b 468 703 397 538 468 606 b 294 863 468 807 397 863 b 89 756 207 863 132 833 l 46 857 b 313 989 92 944 211 989 b 613 719 501 989 613 890 b 353 454 613 571 510 457 l 353 267 l 225 267 m 288 -12 b 188 74 231 -12 188 22 b 288 161 188 128 231 161 b 388 74 346 161 388 128 b 288 -12 388 22 346 -12 "},"@":{"ha":831,"x_min":0,"x_max":0,"o":"m 140 274 b 128 272 136 274 132 274 l 128 136 b 140 135 131 135 136 135 b 183 204 176 135 183 161 b 140 274 183 249 176 274 l 140 274 m 351 190 l 296 190 l 296 138 l 361 138 l 361 104 l 256 104 l 256 306 l 361 306 l 361 271 l 296 271 l 296 224 l 351 224 m 138 101 b 88 104 126 101 106 101 l 88 303 b 139 308 106 306 125 308 b 224 204 201 308 224 274 b 138 101 224 133 200 101 l 138 101 m 451 306 l 478 194 l 504 306 l 560 306 b 568 104 563 257 565 169 l 528 104 b 524 249 528 151 526 201 l 496 135 l 458 135 l 431 249 l 429 249 b 426 104 428 201 426 151 l 388 104 b 397 306 389 169 393 257 l 397 306 m 669 101 b 596 204 614 101 596 133 b 669 308 596 275 614 308 b 744 204 725 308 744 275 b 669 101 744 133 725 101 l 669 101 m 669 274 b 636 204 642 274 636 250 b 669 135 636 160 642 135 b 704 204 699 135 704 160 b 669 274 704 250 699 274 m 656 689 b 742 601 728 689 742 631 b 669 529 742 558 699 533 b 439 429 569 518 497 486 b 656 689 439 429 540 689 l 656 689 m 193 617 b 410 357 324 617 410 357 b 193 457 353 429 281 457 b 107 529 150 457 107 486 b 193 617 107 574 136 617 l 193 617 m 436 824 b 410 486 529 733 410 486 b 325 710 419 578 388 650 b 313 822 294 740 283 790 b 436 824 343 853 394 864 l 436 824 "},"A":{"ha":1082,"x_min":0,"x_max":0,"o":"m 525 993 l 557 993 l 1079 0 l 856 0 l 799 122 l 285 122 l 228 0 l 3 0 m 724 281 l 546 633 l 536 633 l 360 281 "},"B":{"ha":1031,"x_min":0,"x_max":0,"o":"m 631 -18 b 254 19 556 -18 322 19 b 100 0 188 19 147 13 l 85 0 l 85 972 l 636 972 b 919 739 801 972 919 881 b 724 521 919 628 844 547 l 724 511 b 972 263 878 488 972 393 b 631 -18 972 96 838 -18 m 557 579 b 729 708 661 579 729 632 b 557 838 729 788 661 838 l 282 838 l 282 579 m 567 143 b 772 299 701 143 772 208 b 576 439 772 383 694 439 l 282 439 l 282 161 b 567 143 350 160 467 144 "},"C":{"ha":1011,"x_min":0,"x_max":0,"o":"m 617 -18 b 56 482 279 -18 56 185 b 594 989 56 771 285 989 b 932 874 733 989 858 939 l 801 746 b 603 813 749 788 683 813 b 257 483 401 813 257 671 b 613 163 257 292 403 163 b 979 297 736 163 892 221 l 979 88 b 617 -18 888 22 754 -18 "},"D":{"ha":1075,"x_min":0,"x_max":0,"o":"m 571 -18 b 268 19 442 -18 375 19 b 99 0 194 19 146 13 l 85 0 l 85 972 l 511 972 b 1017 483 796 972 1017 764 b 571 -18 1017 203 861 -18 m 549 164 b 822 486 719 164 822 307 b 522 796 822 668 693 796 l 282 796 l 282 182 b 549 164 375 188 454 164 "},"E":{"ha":936,"x_min":0,"x_max":0,"o":"m 85 972 l 783 972 l 783 808 l 282 808 l 282 574 l 822 574 l 822 417 l 282 417 l 282 164 l 875 164 l 875 0 l 85 0 "},"F":{"ha":874,"x_min":0,"x_max":0,"o":"m 85 972 l 835 972 l 835 814 l 282 814 l 282 569 l 731 569 l 731 407 l 282 407 l 282 0 l 85 0 "},"G":{"ha":1172,"x_min":0,"x_max":0,"o":"m 590 -18 b 56 478 272 -18 56 181 b 571 989 56 761 281 989 b 935 868 746 989 860 936 l 878 708 b 596 814 822 765 718 814 b 257 476 401 814 257 663 b 599 160 257 283 410 160 b 863 278 715 160 806 206 l 863 399 l 593 399 l 593 560 l 1143 560 l 1143 399 l 1043 399 l 1043 0 l 992 0 l 950 97 l 944 97 b 590 -18 864 31 742 -18 "},"H":{"ha":1051,"x_min":0,"x_max":0,"o":"m 85 972 l 282 972 l 282 565 l 771 565 l 771 972 l 968 972 l 968 0 l 771 0 l 771 396 l 282 396 l 282 0 l 85 0 "},"I":{"ha":368,"x_min":0,"x_max":0,"o":"m 85 972 l 283 972 l 283 0 l 85 0 "},"J":{"ha":715,"x_min":0,"x_max":0,"o":"m 244 -17 b 15 28 167 -17 83 1 l 22 210 b 192 168 71 185 128 168 b 435 425 340 168 435 254 l 435 821 l 47 821 l 47 972 l 631 972 l 631 378 b 244 -17 631 128 492 -17 "},"K":{"ha":1042,"x_min":0,"x_max":0,"o":"m 85 972 l 282 972 l 282 622 l 293 622 l 340 718 b 735 989 431 913 582 989 b 942 929 821 989 897 960 l 911 760 b 729 825 861 800 808 825 b 499 682 636 825 561 788 l 472 640 l 482 632 l 496 640 b 597 667 524 657 556 667 b 818 492 701 667 779 603 l 932 210 b 1054 0 960 135 1000 63 l 828 0 b 722 196 778 46 747 126 l 638 419 b 485 533 608 497 543 533 b 344 479 435 533 385 510 l 282 390 l 282 0 l 85 0 "},"L":{"ha":874,"x_min":0,"x_max":0,"o":"m 613 -18 b 297 24 503 -17 408 24 b 75 0 207 24 140 10 l 67 7 b 135 271 103 93 132 165 b 79 629 138 374 79 506 b 443 989 79 856 221 989 b 715 899 549 989 650 953 l 689 750 b 489 829 638 801 574 829 b 276 600 368 829 276 747 b 282 176 276 460 360 390 b 625 156 421 204 513 156 b 851 186 699 156 785 167 l 851 10 b 613 -18 783 -8 692 -19 "},"M":{"ha":1239,"x_min":0,"x_max":0,"o":"m 288 989 l 321 989 l 615 478 l 625 478 l 919 989 l 953 989 l 1206 0 l 1004 0 l 858 558 l 849 558 l 633 163 l 606 163 l 390 549 l 382 549 l 236 0 l 33 0 "},"N":{"ha":1053,"x_min":0,"x_max":0,"o":"m 282 596 l 272 596 l 272 0 l 85 0 l 85 993 l 114 993 l 772 375 l 781 376 l 781 972 l 968 972 l 968 -22 l 939 -22 "},"O":{"ha":1135,"x_min":0,"x_max":0,"o":"m 567 -18 b 56 485 271 -18 56 193 b 567 989 56 776 271 989 b 1079 485 864 989 1079 776 b 567 -18 1079 193 864 -18 m 567 160 b 878 485 747 160 878 294 b 567 813 878 676 747 813 b 257 485 389 813 257 676 b 567 160 257 294 389 160 "},"P":{"ha":994,"x_min":0,"x_max":0,"o":"m 85 972 l 614 972 b 956 656 813 972 956 836 b 610 297 956 461 800 306 b 288 382 468 297 383 324 l 283 378 l 283 0 l 85 0 m 540 457 b 757 628 656 457 757 533 b 558 797 757 728 675 797 l 283 797 l 283 513 b 540 457 363 476 432 457 "},"Q":{"ha":1135,"x_min":0,"x_max":0,"o":"m 1025 -149 b 56 482 578 -164 56 -29 b 567 990 56 779 271 990 b 1079 486 864 990 1079 778 b 583 -12 1079 214 886 -7 l 583 -19 b 1025 1 726 -50 913 -40 l 1025 -149 m 567 160 b 878 486 747 160 878 296 b 567 813 878 676 747 813 b 257 486 389 813 257 676 b 567 160 257 296 389 160 "},"R":{"ha":993,"x_min":0,"x_max":0,"o":"m 807 -19 b 436 215 653 -19 568 56 l 290 392 l 282 390 l 282 0 l 85 0 l 85 972 l 613 972 b 956 646 821 972 956 840 b 640 358 956 482 819 358 b 522 374 589 358 557 364 l 517 367 b 779 156 649 214 703 156 b 946 232 853 156 906 182 l 982 42 b 807 -19 944 13 881 -19 m 556 488 b 772 653 671 488 772 553 b 574 808 772 754 690 808 l 282 808 l 282 556 b 556 488 372 514 446 488 "},"S":{"ha":960,"x_min":0,"x_max":0,"o":"m 494 -18 b 43 75 369 -18 158 21 l 60 264 b 476 143 172 182 335 143 b 744 297 631 143 744 206 b 471 418 744 399 644 431 b 78 686 221 399 78 499 b 488 989 78 854 251 989 b 835 918 628 989 754 957 l 835 753 b 515 831 768 790 653 831 b 251 686 354 831 253 768 b 542 568 250 596 344 553 b 919 299 778 585 919 483 b 494 -18 919 118 743 -18 "},"T":{"ha":892,"x_min":0,"x_max":0,"o":"m 586 -19 b 239 386 349 -19 182 138 l 350 814 l 35 814 l 35 972 l 857 972 l 857 814 l 544 814 l 435 428 b 626 167 396 279 478 167 b 813 246 711 167 761 196 l 839 72 b 586 -19 776 14 692 -19 "},"U":{"ha":1082,"x_min":0,"x_max":0,"o":"m 542 -18 b 83 411 278 -18 57 144 l 146 972 l 344 972 l 288 421 b 542 160 271 268 394 160 b 797 421 689 160 813 268 l 740 972 l 938 972 l 1000 411 b 542 -18 1028 144 807 -18 "},"V":{"ha":1082,"x_min":0,"x_max":0,"o":"m 3 972 l 228 972 l 535 306 l 544 306 l 854 972 l 1078 972 l 556 -22 l 525 -22 "},"W":{"ha":1485,"x_min":0,"x_max":0,"o":"m 7 972 l 229 972 l 453 408 l 463 408 l 729 993 l 754 993 l 1021 408 l 1031 408 l 1256 972 l 1478 972 l 1076 -22 l 1046 -22 l 747 625 l 738 625 l 438 -22 l 408 -22 "},"X":{"ha":988,"x_min":0,"x_max":0,"o":"m 382 501 l 25 972 l 225 972 l 489 636 l 497 636 l 761 972 l 963 972 l 606 501 l 978 0 l 774 0 l 499 353 l 489 353 l 215 0 l 8 0 "},"Y":{"ha":1028,"x_min":0,"x_max":0,"o":"m 417 372 l 3 972 l 231 972 l 508 569 l 517 569 l 797 972 l 1024 972 l 614 375 l 614 0 l 417 0 "},"Z":{"ha":954,"x_min":0,"x_max":0,"o":"m 656 -18 b 315 26 533 -17 438 26 b 49 0 221 26 131 18 l 49 22 l 536 769 l 531 778 l 69 778 l 69 972 l 885 972 l 885 949 l 397 194 l 400 189 b 683 172 518 206 586 172 b 900 204 763 172 829 183 l 900 11 b 656 -18 826 -8 743 -19 "},"[":{"ha":831,"x_min":0,"x_max":0,"o":"m 140 274 b 128 272 136 274 132 274 l 128 136 b 140 135 131 135 136 135 b 183 204 176 135 183 161 b 140 274 183 249 176 274 l 140 274 m 351 190 l 296 190 l 296 138 l 361 138 l 361 104 l 256 104 l 256 306 l 361 306 l 361 271 l 296 271 l 296 224 l 351 224 m 138 101 b 88 104 126 101 106 101 l 88 303 b 139 308 106 306 125 308 b 224 204 201 308 224 274 b 138 101 224 133 200 101 l 138 101 m 451 306 l 478 194 l 504 306 l 560 306 b 568 104 563 257 565 169 l 528 104 b 524 249 528 151 526 201 l 496 135 l 458 135 l 431 249 l 429 249 b 426 104 428 201 426 151 l 388 104 b 397 306 389 169 393 257 l 397 306 m 669 101 b 596 204 614 101 596 133 b 669 308 596 275 614 308 b 744 204 725 308 744 275 b 669 101 744 133 725 101 l 669 101 m 669 274 b 636 204 642 274 636 250 b 669 135 636 160 642 135 b 704 204 699 135 704 160 b 669 274 704 250 699 274 m 656 689 b 742 601 728 689 742 631 b 669 529 742 558 699 533 b 439 429 569 518 497 486 b 656 689 439 429 540 689 l 656 689 m 193 617 b 410 357 324 617 410 357 b 193 457 353 429 281 457 b 107 529 150 457 107 486 b 193 617 107 574 136 617 l 193 617 m 436 824 b 410 486 529 733 410 486 b 325 710 419 578 388 650 b 313 822 294 740 283 790 b 436 824 343 853 394 864 l 436 824 "},"\\":{"ha":831,"x_min":0,"x_max":0,"o":"m 140 274 b 128 272 136 274 132 274 l 128 136 b 140 135 131 135 136 135 b 183 204 176 135 183 161 b 140 274 183 249 176 274 l 140 274 m 351 190 l 296 190 l 296 138 l 361 138 l 361 104 l 256 104 l 256 306 l 361 306 l 361 271 l 296 271 l 296 224 l 351 224 m 138 101 b 88 104 126 101 106 101 l 88 303 b 139 308 106 306 125 308 b 224 204 201 308 224 274 b 138 101 224 133 200 101 l 138 101 m 451 306 l 478 194 l 504 306 l 560 306 b 568 104 563 257 565 169 l 528 104 b 524 249 528 151 526 201 l 496 135 l 458 135 l 431 249 l 429 249 b 426 104 428 201 426 151 l 388 104 b 397 306 389 169 393 257 l 397 306 m 669 101 b 596 204 614 101 596 133 b 669 308 596 275 614 308 b 744 204 725 308 744 275 b 669 101 744 133 725 101 l 669 101 m 669 274 b 636 204 642 274 636 250 b 669 135 636 160 642 135 b 704 204 699 135 704 160 b 669 274 704 250 699 274 m 656 689 b 742 601 728 689 742 631 b 669 529 742 558 699 533 b 439 429 569 518 497 486 b 656 689 439 429 540 689 l 656 689 m 193 617 b 410 357 324 617 410 357 b 193 457 353 429 281 457 b 107 529 150 457 107 486 b 193 617 107 574 136 617 l 193 617 m 436 824 b 410 486 529 733 410 486 b 325 710 419 578 388 650 b 313 822 294 740 283 790 b 436 824 343 853 394 864 l 436 824 "},"]":{"ha":831,"x_min":0,"x_max":0,"o":"m 140 274 b 128 272 136 274 132 274 l 128 136 b 140 135 131 135 136 135 b 183 204 176 135 183 161 b 140 274 183 249 176 274 l 140 274 m 351 190 l 296 190 l 296 138 l 361 138 l 361 104 l 256 104 l 256 306 l 361 306 l 361 271 l 296 271 l 296 224 l 351 224 m 138 101 b 88 104 126 101 106 101 l 88 303 b 139 308 106 306 125 308 b 224 204 201 308 224 274 b 138 101 224 133 200 101 l 138 101 m 451 306 l 478 194 l 504 306 l 560 306 b 568 104 563 257 565 169 l 528 104 b 524 249 528 151 526 201 l 496 135 l 458 135 l 431 249 l 429 249 b 426 104 428 201 426 151 l 388 104 b 397 306 389 169 393 257 l 397 306 m 669 101 b 596 204 614 101 596 133 b 669 308 596 275 614 308 b 744 204 725 308 744 275 b 669 101 744 133 725 101 l 669 101 m 669 274 b 636 204 642 274 636 250 b 669 135 636 160 642 135 b 704 204 699 135 704 160 b 669 274 704 250 699 274 m 656 689 b 742 601 728 689 742 631 b 669 529 742 558 699 533 b 439 429 569 518 497 486 b 656 689 439 429 540 689 l 656 689 m 193 617 b 410 357 324 617 410 357 b 193 457 353 429 281 457 b 107 529 150 457 107 486 b 193 617 107 574 136 617 l 193 617 m 436 824 b 410 486 529 733 410 486 b 325 710 419 578 388 650 b 313 822 294 740 283 790 b 436 824 343 853 394 864 l 436 824 "},"^":{"ha":831,"x_min":0,"x_max":0,"o":"m 140 274 b 128 272 136 274 132 274 l 128 136 b 140 135 131 135 136 135 b 183 204 176 135 183 161 b 140 274 183 249 176 274 l 140 274 m 351 190 l 296 190 l 296 138 l 361 138 l 361 104 l 256 104 l 256 306 l 361 306 l 361 271 l 296 271 l 296 224 l 351 224 m 138 101 b 88 104 126 101 106 101 l 88 303 b 139 308 106 306 125 308 b 224 204 201 308 224 274 b 138 101 224 133 200 101 l 138 101 m 451 306 l 478 194 l 504 306 l 560 306 b 568 104 563 257 565 169 l 528 104 b 524 249 528 151 526 201 l 496 135 l 458 135 l 431 249 l 429 249 b 426 104 428 201 426 151 l 388 104 b 397 306 389 169 393 257 l 397 306 m 669 101 b 596 204 614 101 596 133 b 669 308 596 275 614 308 b 744 204 725 308 744 275 b 669 101 744 133 725 101 l 669 101 m 669 274 b 636 204 642 274 636 250 b 669 135 636 160 642 135 b 704 204 699 135 704 160 b 669 274 704 250 699 274 m 656 689 b 742 601 728 689 742 631 b 669 529 742 558 699 533 b 439 429 569 518 497 486 b 656 689 439 429 540 689 l 656 689 m 193 617 b 410 357 324 617 410 357 b 193 457 353 429 281 457 b 107 529 150 457 107 486 b 193 617 107 574 136 617 l 193 617 m 436 824 b 410 486 529 733 410 486 b 325 710 419 578 388 650 b 313 822 294 740 283 790 b 436 824 343 853 394 864 l 436 824 "},"_":{"ha":831,"x_min":0,"x_max":0,"o":"m 140 274 b 128 272 136 274 132 274 l 128 136 b 140 135 131 135 136 135 b 183 204 176 135 183 161 b 140 274 183 249 176 274 l 140 274 m 351 190 l 296 190 l 296 138 l 361 138 l 361 104 l 256 104 l 256 306 l 361 306 l 361 271 l 296 271 l 296 224 l 351 224 m 138 101 b 88 104 126 101 106 101 l 88 303 b 139 308 106 306 125 308 b 224 204 201 308 224 274 b 138 101 224 133 200 101 l 138 101 m 451 306 l 478 194 l 504 306 l 560 306 b 568 104 563 257 565 169 l 528 104 b 524 249 528 151 526 201 l 496 135 l 458 135 l 431 249 l 429 249 b 426 104 428 201 426 151 l 388 104 b 397 306 389 169 393 257 l 397 306 m 669 101 b 596 204 614 101 596 133 b 669 308 596 275 614 308 b 744 204 725 308 744 275 b 669 101 744 133 725 101 l 669 101 m 669 274 b 636 204 642 274 636 250 b 669 135 636 160 642 135 b 704 204 699 135 704 160 b 669 274 704 250 699 274 m 656 689 b 742 601 728 689 742 631 b 669 529 742 558 699 533 b 439 429 569 518 497 486 b 656 689 439 429 540 689 l 656 689 m 193 617 b 410 357 324 617 410 357 b 193 457 353 429 281 457 b 107 529 150 457 107 486 b 193 617 107 574 136 617 l 193 617 m 436 824 b 410 486 529 733 410 486 b 325 710 419 578 388 650 b 313 822 294 740 283 790 b 436 824 343 853 394 864 l 436 824 "},"`":{"ha":831,"x_min":0,"x_max":0,"o":"m 140 274 b 128 272 136 274 132 274 l 128 136 b 140 135 131 135 136 135 b 183 204 176 135 183 161 b 140 274 183 249 176 274 l 140 274 m 351 190 l 296 190 l 296 138 l 361 138 l 361 104 l 256 104 l 256 306 l 361 306 l 361 271 l 296 271 l 296 224 l 351 224 m 138 101 b 88 104 126 101 106 101 l 88 303 b 139 308 106 306 125 308 b 224 204 201 308 224 274 b 138 101 224 133 200 101 l 138 101 m 451 306 l 478 194 l 504 306 l 560 306 b 568 104 563 257 565 169 l 528 104 b 524 249 528 151 526 201 l 496 135 l 458 135 l 431 249 l 429 249 b 426 104 428 201 426 151 l 388 104 b 397 306 389 169 393 257 l 397 306 m 669 101 b 596 204 614 101 596 133 b 669 308 596 275 614 308 b 744 204 725 308 744 275 b 669 101 744 133 725 101 l 669 101 m 669 274 b 636 204 642 274 636 250 b 669 135 636 160 642 135 b 704 204 699 135 704 160 b 669 274 704 250 699 274 m 656 689 b 742 601 728 689 742 631 b 669 529 742 558 699 533 b 439 429 569 518 497 486 b 656 689 439 429 540 689 l 656 689 m 193 617 b 410 357 324 617 410 357 b 193 457 353 429 281 457 b 107 529 150 457 107 486 b 193 617 107 574 136 617 l 193 617 m 436 824 b 410 486 529 733 410 486 b 325 710 419 578 388 650 b 313 822 294 740 283 790 b 436 824 343 853 394 864 l 436 824 "},"a":{"ha":967,"x_min":0,"x_max":0,"o":"m 404 -18 b 53 371 204 -18 53 140 b 419 758 53 594 211 758 b 731 578 554 758 671 690 l 739 578 l 849 742 l 882 742 l 882 0 l 697 0 b 710 131 703 44 707 86 l 701 131 b 404 -18 638 40 532 -18 m 472 125 b 717 372 608 125 717 226 b 472 619 717 518 608 619 b 226 372 336 619 226 518 b 472 125 226 226 335 125 "},"b":{"ha":979,"x_min":0,"x_max":0,"o":"m 558 -18 b 263 129 425 -18 326 39 l 257 129 b 268 0 258 85 263 44 l 83 0 l 83 944 l 254 944 l 254 613 l 261 613 b 560 758 325 703 424 758 b 926 372 767 758 926 597 b 558 -18 926 147 765 -18 m 503 121 b 751 372 642 121 751 225 b 503 624 751 519 642 624 b 256 372 364 624 256 519 b 503 121 256 225 364 121 "},"c":{"ha":811,"x_min":0,"x_max":0,"o":"m 488 -18 b 51 372 233 -18 51 143 b 464 758 51 596 221 758 b 756 656 569 758 686 725 l 707 532 b 482 619 653 586 571 619 b 224 374 335 619 224 519 b 506 129 224 228 344 129 b 776 222 610 129 700 168 l 776 64 b 488 -18 703 14 596 -18 "},"d":{"ha":979,"x_min":0,"x_max":0,"o":"m 418 -18 b 51 372 211 -18 51 147 b 418 758 51 597 211 758 b 717 613 554 758 653 703 l 724 613 l 724 944 l 894 944 l 894 0 l 710 0 b 721 129 715 44 719 85 l 714 129 b 418 -18 651 39 553 -18 m 474 121 b 722 372 613 121 722 225 b 474 624 722 519 613 624 b 226 372 336 624 226 519 b 474 121 226 225 336 121 "},"e":{"ha":908,"x_min":0,"x_max":0,"o":"m 476 -18 b 51 372 200 -18 51 158 b 457 758 51 596 224 758 b 858 376 688 758 858 596 b 856 314 858 363 857 325 l 219 314 b 501 113 228 192 346 113 b 767 213 607 113 693 147 l 800 85 b 476 -18 719 14 601 -18 m 697 425 b 456 626 689 544 586 626 b 217 425 328 626 226 546 "},"f":{"ha":638,"x_min":0,"x_max":0,"o":"m 228 610 l 19 610 l 19 742 l 246 742 l 246 751 b 88 860 157 754 88 804 b 371 989 88 936 158 989 b 574 958 463 989 547 965 l 565 863 b 439 886 549 869 500 886 b 275 821 328 886 275 867 b 453 742 275 776 358 742 l 622 742 l 622 610 l 399 610 l 399 -1 l 228 -1 "},"g":{"ha":921,"x_min":0,"x_max":0,"o":"m 490 -332 b 53 -114 214 -332 53 -253 b 204 61 53 -22 114 35 l 204 69 b 56 372 113 135 56 242 b 458 753 56 593 225 753 l 863 753 l 863 722 l 703 674 l 703 665 b 861 368 800 601 861 496 b 458 -15 861 147 693 -15 b 361 -6 435 -15 382 -10 b 206 -103 268 -11 206 -46 b 482 -200 206 -178 324 -200 b 811 -136 585 -200 731 -174 l 853 -274 b 490 -332 767 -307 610 -332 m 458 115 b 706 364 596 115 706 219 b 458 611 706 510 596 611 b 211 365 321 611 211 510 b 458 115 211 219 321 115 "},"h":{"ha":925,"x_min":0,"x_max":0,"o":"m 83 944 l 254 944 l 254 628 l 263 628 b 515 758 321 711 414 758 b 844 422 717 758 844 626 l 844 0 l 674 0 l 674 390 b 463 614 674 522 581 614 b 254 394 346 614 254 522 l 254 0 l 83 0 "},"i":{"ha":332,"x_min":0,"x_max":0,"o":"m 167 885 b 64 957 103 885 64 913 b 167 1028 64 1000 103 1028 b 268 957 231 1028 268 1000 b 167 885 268 913 231 885 m 82 742 l 254 742 l 254 0 l 82 0 "},"j":{"ha":343,"x_min":0,"x_max":0,"o":"m 178 885 b 75 957 113 885 75 913 b 178 1028 75 1000 113 1028 b 279 957 242 1028 279 1000 b 178 885 279 913 242 885 m -15 -332 b -175 -312 -71 -332 -125 -325 l -169 -187 b -68 -204 -139 -197 -106 -204 b 93 -29 42 -204 93 -144 l 93 742 l 264 742 l 264 -40 b -15 -332 264 -226 167 -332 "},"k":{"ha":861,"x_min":0,"x_max":0,"o":"m 83 944 l 254 944 l 254 514 l 261 514 l 300 585 b 611 763 371 711 463 763 b 790 717 679 763 751 742 l 767 583 b 600 632 726 614 665 632 b 394 507 499 632 439 582 l 383 488 l 389 485 b 503 519 426 510 461 519 b 699 363 615 519 664 453 l 782 157 b 872 0 804 101 833 51 l 675 0 b 592 147 636 42 613 92 l 535 297 b 414 397 511 363 464 397 b 313 353 376 397 343 378 l 254 253 l 254 0 l 83 0 "},"l":{"ha":338,"x_min":0,"x_max":0,"o":"m 83 944 l 254 944 l 254 0 l 83 0 "},"m":{"ha":1358,"x_min":0,"x_max":0,"o":"m 83 742 l 118 742 l 213 613 l 218 613 b 472 758 267 707 363 758 b 728 601 594 758 685 703 l 736 601 b 993 758 786 703 881 758 b 1276 460 1156 758 1276 638 l 1276 0 l 1113 0 l 1113 426 b 938 614 1113 538 1038 614 b 763 431 839 614 764 539 l 763 0 l 599 0 l 599 426 b 425 614 599 540 535 614 b 247 438 328 614 253 542 l 247 0 l 83 0 "},"n":{"ha":925,"x_min":0,"x_max":0,"o":"m 83 742 l 118 742 l 221 594 l 228 594 b 514 758 285 700 393 758 b 844 426 697 758 844 626 l 844 0 l 674 0 l 674 390 b 464 614 674 522 582 614 b 254 390 346 614 254 524 l 254 0 l 83 0 "},"o":{"ha":929,"x_min":0,"x_max":0,"o":"m 465 -18 b 51 371 225 -18 51 144 b 465 758 51 597 225 758 b 878 371 704 758 878 597 b 465 -18 878 144 704 -18 m 465 125 b 707 371 600 125 707 225 b 465 615 707 517 600 615 b 222 371 331 615 222 517 b 465 125 222 225 331 125 "},"p":{"ha":961,"x_min":0,"x_max":0,"o":"m 83 742 l 115 742 l 226 578 l 233 578 b 546 758 294 690 410 758 b 913 371 754 758 913 594 b 561 -18 913 140 761 -18 b 263 131 433 -18 326 40 l 254 131 l 254 -311 l 83 -311 m 494 125 b 738 372 631 125 738 226 b 494 619 738 518 631 619 b 250 372 358 619 250 518 b 494 125 250 226 358 125 "},"q":{"ha":961,"x_min":0,"x_max":0,"o":"m 707 131 l 697 131 b 400 -18 635 40 528 -18 b 49 371 201 -18 49 140 b 414 758 49 594 207 758 b 728 578 550 758 667 690 l 735 578 l 846 742 l 878 742 l 878 -311 l 707 -311 m 467 125 b 711 372 603 125 711 226 b 467 619 711 518 603 619 b 222 372 331 619 222 518 b 467 125 222 226 331 125 "},"r":{"ha":625,"x_min":0,"x_max":0,"o":"m 83 742 l 118 742 l 222 600 l 231 600 b 496 758 279 701 374 758 b 604 742 540 758 569 753 l 599 589 b 497 614 581 594 553 614 b 254 369 350 614 258 517 l 254 0 l 83 0 "},"s":{"ha":746,"x_min":0,"x_max":0,"o":"m 379 -18 b 44 65 264 -18 125 19 l 57 206 b 347 111 133 150 242 111 b 525 201 472 111 525 144 b 310 328 525 265 467 296 b 64 549 149 361 64 432 b 376 758 64 660 179 758 b 653 714 489 758 578 740 l 653 583 b 411 632 592 611 497 632 b 231 544 289 632 231 597 b 444 424 231 489 286 458 b 693 204 615 388 693 325 b 379 -18 693 76 575 -18 "},"t":{"ha":688,"x_min":0,"x_max":0,"o":"m 451 -18 b 169 257 279 -18 169 74 l 169 610 l 14 610 l 14 696 l 308 913 l 339 913 l 339 742 l 651 742 l 651 606 l 339 606 l 339 296 b 503 131 339 182 393 131 b 647 160 576 131 628 151 l 656 17 b 451 -18 618 6 546 -18 "},"u":{"ha":925,"x_min":0,"x_max":0,"o":"m 399 -18 b 81 315 215 -18 81 106 l 81 742 l 253 742 l 253 351 b 463 128 253 214 339 128 b 671 351 579 128 671 219 l 671 742 l 842 742 l 842 0 l 661 0 b 667 104 664 36 667 69 l 658 104 b 399 -18 604 26 514 -18 "},"v":{"ha":826,"x_min":0,"x_max":0,"o":"m 3 742 l 189 742 l 408 243 l 418 243 l 638 742 l 824 742 l 439 -22 l 388 -22 "},"w":{"ha":1182,"x_min":0,"x_max":0,"o":"m 11 742 l 197 742 l 353 310 l 361 310 l 569 763 l 613 763 l 822 310 l 829 310 l 986 742 l 1171 742 l 864 -22 l 807 -22 l 596 456 l 586 456 l 375 -22 l 319 -22 "},"x":{"ha":804,"x_min":0,"x_max":0,"o":"m 301 383 l 26 742 l 206 742 l 397 490 l 406 490 l 597 742 l 776 742 l 503 383 l 793 0 l 608 0 l 406 264 l 397 264 l 197 0 l 13 0 "},"y":{"ha":925,"x_min":0,"x_max":0,"o":"m 400 -332 b 94 -282 318 -332 176 -310 l 114 -139 b 381 -194 181 -169 307 -194 b 671 81 560 -194 671 -108 l 671 124 l 663 124 b 399 -8 607 42 514 -8 b 81 324 215 -8 81 114 l 81 742 l 253 742 l 253 361 b 463 138 253 224 339 138 b 671 361 579 138 671 229 l 671 742 l 842 742 l 842 51 b 400 -332 842 -197 665 -332 "},"z":{"ha":851,"x_min":0,"x_max":0,"o":"m 54 46 l 501 601 l 497 608 l 93 608 l 93 742 l 767 742 l 767 696 l 324 140 l 328 133 l 797 133 l 797 0 l 54 0 "},"{":{"ha":831,"x_min":0,"x_max":0,"o":"m 140 274 b 128 272 136 274 132 274 l 128 136 b 140 135 131 135 136 135 b 183 204 176 135 183 161 b 140 274 183 249 176 274 l 140 274 m 351 190 l 296 190 l 296 138 l 361 138 l 361 104 l 256 104 l 256 306 l 361 306 l 361 271 l 296 271 l 296 224 l 351 224 m 138 101 b 88 104 126 101 106 101 l 88 303 b 139 308 106 306 125 308 b 224 204 201 308 224 274 b 138 101 224 133 200 101 l 138 101 m 451 306 l 478 194 l 504 306 l 560 306 b 568 104 563 257 565 169 l 528 104 b 524 249 528 151 526 201 l 496 135 l 458 135 l 431 249 l 429 249 b 426 104 428 201 426 151 l 388 104 b 397 306 389 169 393 257 l 397 306 m 669 101 b 596 204 614 101 596 133 b 669 308 596 275 614 308 b 744 204 725 308 744 275 b 669 101 744 133 725 101 l 669 101 m 669 274 b 636 204 642 274 636 250 b 669 135 636 160 642 135 b 704 204 699 135 704 160 b 669 274 704 250 699 274 m 656 689 b 742 601 728 689 742 631 b 669 529 742 558 699 533 b 439 429 569 518 497 486 b 656 689 439 429 540 689 l 656 689 m 193 617 b 410 357 324 617 410 357 b 193 457 353 429 281 457 b 107 529 150 457 107 486 b 193 617 107 574 136 617 l 193 617 m 436 824 b 410 486 529 733 410 486 b 325 710 419 578 388 650 b 313 822 294 740 283 790 b 436 824 343 853 394 864 l 436 824 "},"|":{"ha":831,"x_min":0,"x_max":0,"o":"m 140 274 b 128 272 136 274 132 274 l 128 136 b 140 135 131 135 136 135 b 183 204 176 135 183 161 b 140 274 183 249 176 274 l 140 274 m 351 190 l 296 190 l 296 138 l 361 138 l 361 104 l 256 104 l 256 306 l 361 306 l 361 271 l 296 271 l 296 224 l 351 224 m 138 101 b 88 104 126 101 106 101 l 88 303 b 139 308 106 306 125 308 b 224 204 201 308 224 274 b 138 101 224 133 200 101 l 138 101 m 451 306 l 478 194 l 504 306 l 560 306 b 568 104 563 257 565 169 l 528 104 b 524 249 528 151 526 201 l 496 135 l 458 135 l 431 249 l 429 249 b 426 104 428 201 426 151 l 388 104 b 397 306 389 169 393 257 l 397 306 m 669 101 b 596 204 614 101 596 133 b 669 308 596 275 614 308 b 744 204 725 308 744 275 b 669 101 744 133 725 101 l 669 101 m 669 274 b 636 204 642 274 636 250 b 669 135 636 160 642 135 b 704 204 699 135 704 160 b 669 274 704 250 699 274 m 656 689 b 742 601 728 689 742 631 b 669 529 742 558 699 533 b 439 429 569 518 497 486 b 656 689 439 429 540 689 l 656 689 m 193 617 b 410 357 324 617 410 357 b 193 457 353 429 281 457 b 107 529 150 457 107 486 b 193 617 107 574 136 617 l 193 617 m 436 824 b 410 486 529 733 410 486 b 325 710 419 578 388 650 b 313 822 294 740 283 790 b 436 824 343 853 394 864 l 436 824 "},"}":{"ha":831,"x_min":0,"x_max":0,"o":"m 140 274 b 128 272 136 274 132 274 l 128 136 b 140 135 131 135 136 135 b 183 204 176 135 183 161 b 140 274 183 249 176 274 l 140 274 m 351 190 l 296 190 l 296 138 l 361 138 l 361 104 l 256 104 l 256 306 l 361 306 l 361 271 l 296 271 l 296 224 l 351 224 m 138 101 b 88 104 126 101 106 101 l 88 303 b 139 308 106 306 125 308 b 224 204 201 308 224 274 b 138 101 224 133 200 101 l 138 101 m 451 306 l 478 194 l 504 306 l 560 306 b 568 104 563 257 565 169 l 528 104 b 524 249 528 151 526 201 l 496 135 l 458 135 l 431 249 l 429 249 b 426 104 428 201 426 151 l 388 104 b 397 306 389 169 393 257 l 397 306 m 669 101 b 596 204 614 101 596 133 b 669 308 596 275 614 308 b 744 204 725 308 744 275 b 669 101 744 133 725 101 l 669 101 m 669 274 b 636 204 642 274 636 250 b 669 135 636 160 642 135 b 704 204 699 135 704 160 b 669 274 704 250 699 274 m 656 689 b 742 601 728 689 742 631 b 669 529 742 558 699 533 b 439 429 569 518 497 486 b 656 689 439 429 540 689 l 656 689 m 193 617 b 410 357 324 617 410 357 b 193 457 353 429 281 457 b 107 529 150 457 107 486 b 193 617 107 574 136 617 l 193 617 m 436 824 b 410 486 529 733 410 486 b 325 710 419 578 388 650 b 313 822 294 740 283 790 b 436 824 343 853 394 864 l 436 824 "},"~":{"ha":831,"x_min":0,"x_max":0,"o":"m 140 274 b 128 272 136 274 132 274 l 128 136 b 140 135 131 135 136 135 b 183 204 176 135 183 161 b 140 274 183 249 176 274 l 140 274 m 351 190 l 296 190 l 296 138 l 361 138 l 361 104 l 256 104 l 256 306 l 361 306 l 361 271 l 296 271 l 296 224 l 351 224 m 138 101 b 88 104 126 101 106 101 l 88 303 b 139 308 106 306 125 308 b 224 204 201 308 224 274 b 138 101 224 133 200 101 l 138 101 m 451 306 l 478 194 l 504 306 l 560 306 b 568 104 563 257 565 169 l 528 104 b 524 249 528 151 526 201 l 496 135 l 458 135 l 431 249 l 429 249 b 426 104 428 201 426 151 l 388 104 b 397 306 389 169 393 257 l 397 306 m 669 101 b 596 204 614 101 596 133 b 669 308 596 275 614 308 b 744 204 725 308 744 275 b 669 101 744 133 725 101 l 669 101 m 669 274 b 636 204 642 274 636 250 b 669 135 636 160 642 135 b 704 204 699 135 704 160 b 669 274 704 250 699 274 m 656 689 b 742 601 728 689 742 631 b 669 529 742 558 699 533 b 439 429 569 518 497 486 b 656 689 439 429 540 689 l 656 689 m 193 617 b 410 357 324 617 410 357 b 193 457 353 429 281 457 b 107 529 150 457 107 486 b 193 617 107 574 136 617 l 193 617 m 436 824 b 410 486 529 733 410 486 b 325 710 419 578 388 650 b 313 822 294 740 283 790 b 436 824 343 853 394 864 l 436 824 "}}}
